<?xml version="1.0" encoding="UTF-8" standalone="no"?>
<!-- Created with Inkscape (http://www.inkscape.org/) -->

<svg
   xmlns:dc="http://purl.org/dc/elements/1.1/"
   xmlns:cc="http://creativecommons.org/ns#"
   xmlns:rdf="http://www.w3.org/1999/02/22-rdf-syntax-ns#"
   xmlns:svg="http://www.w3.org/2000/svg"
   xmlns="http://www.w3.org/2000/svg"
   xmlns:sodipodi="http://sodipodi.sourceforge.net/DTD/sodipodi-0.dtd"
   xmlns:inkscape="http://www.inkscape.org/namespaces/inkscape"
   width="70.555557mm"
   height="95.955559mm"
   viewBox="0 0 250.00001 340.00001"
   id="svg2"
   version="1.1"
   inkscape:version="0.91 r13725"
   sodipodi:docname="blendfileIcon.svg">
  <defs
     id="defs4" />
  <sodipodi:namedview
     id="base"
     pagecolor="#ffffff"
     bordercolor="#666666"
     borderopacity="1.0"
     inkscape:pageopacity="0.0"
     inkscape:pageshadow="2"
     inkscape:zoom="0.70710678"
     inkscape:cx="-530.46677"
     inkscape:cy="2.5105149"
     inkscape:document-units="px"
     inkscape:current-layer="layer1"
     showgrid="false"
     fit-margin-top="0"
     fit-margin-left="0"
     fit-margin-right="0"
     fit-margin-bottom="0"
     inkscape:window-width="1920"
     inkscape:window-height="1043"
     inkscape:window-x="0"
     inkscape:window-y="20"
     inkscape:window-maximized="1"
     showguides="true"
     inkscape:guide-bbox="true" />
  <metadata
     id="metadata7">
    <rdf:RDF>
      <cc:Work
         rdf:about="">
        <dc:format>image/svg+xml</dc:format>
        <dc:type
           rdf:resource="http://purl.org/dc/dcmitype/StillImage" />
        <dc:title />
      </cc:Work>
    </rdf:RDF>
  </metadata>
  <g
     inkscape:label="Layer 1"
     inkscape:groupmode="layer"
     id="layer1">
    <path
       style="fill:#999999;fill-opacity:1"
       d="M 0,84.49118 84.50872,0 250,0 250,340 0,340 Z m 243,-76.4911803 -151,0 L 92,92 8,92 8,332 243,332 Z M 136.11197,249.95505 c -24.39775,-6.38943 -39.78803,-22.44498 -43.78567,-45.67838 -0.83059,-4.82717 -1.59991,-8.87028 -1.70959,-8.9847 -0.10969,-0.11441 -6.03082,4.54828 -13.15807,10.36154 -26.40308,21.53538 -27.80582,22.3771 -33.92566,20.35737 -7.23043,-2.38625 -8.8644,-10.28595 -3.41199,-16.4959 1.71654,-1.95503 17.57904,-14.68319 35.25,-28.28479 L 107.5,156.5 86.80676,156.22988 c 0,0 -10.832296,-0.0778 -15.389949,-0.27011 C 67.521336,155.69568 62.19362,153.52214 62,149 c -0.231357,-5.40351 3.669528,-7.07306 6.88132,-8.31755 4.775594,-1.85043 14.58172,-1.33247 39.54879,-1.67532 l 36.9301,-0.50713 -12.16418,-9.76247 c -14.1227,-11.33429 -15.33559,-13.43664 -10.33141,-17.90787 4.62769,-4.13484 9.28618,-3.70261 16.48484,0.92034 11.35109,7.28963 52.04249,38.16904 58.14156,45.40537 11.67503,13.85202 17.13751,22.75758 16.23683,40.33829 -0.60351,11.78022 -2.89084,19.04735 -8.89644,28.26511 -13.36781,20.51769 -42.96839,30.94013 -68.71944,24.19628 z m 33.26075,-27.967 c 14.59716,-7.18616 23.22097,-22.31159 20.60018,-36.13095 -1.45987,-7.69788 -4.78562,-13.46828 -11.16796,-19.37721 -7.96172,-7.37114 -14.66756,-9.89319 -26.30494,-9.89319 -11.67469,0 -18.33757,2.51681 -26.38364,9.96606 -20.12523,18.63241 -12.40063,48.54631 14.88364,57.63766 8.57574,2.85751 19.87647,1.98032 28.37272,-2.20237 z M 145.6275,210.53183 c -16.73915,-5.9668 -21.02612,-25.63908 -7.93821,-36.42725 10.48877,-8.64573 25.41992,-7.57785 34.22238,2.4476 4.07683,4.64325 5.08833,7.33738 5.08833,13.55276 0,14.71091 -16.77205,25.63133 -31.3725,20.42689 z M 84.74493,11 10.51014,85 85,85 Z"
       id="path4149"
       inkscape:connector-curvature="0"
       sodipodi:nodetypes="cccccccccccccsscsssscccssscssssssssssssssssssscccc" />
    <path
       style="fill:#000000"
       d=""
       id="path4147"
       inkscape:connector-curvature="0" />
  </g>
  <g
     inkscape:groupmode="layer"
     id="layer2"
     inkscape:label="Layer 2"
     style="display:none">
    <g
       id="g6440">
      <path
         id="path6416"
         d="m 485.69531,254.26172 0,14.0918 c 0,0.20648 0.12022,0.39571 0.4336,0.60742 0.31337,0.2117 0.79433,0.40398 1.34375,0.55078 1.09883,0.29359 2.47341,0.41991 3.42382,0.41992 0.95036,10e-6 2.32498,-0.12622 3.42383,-0.41992 0.54943,-0.14685 1.03035,-0.33909 1.34375,-0.55078 0.3134,-0.21169 0.4336,-0.40123 0.4336,-0.60742 l 0,-14.0918 -10.40235,0 z"
         style="fill:#ff782a;fill-opacity:1;fill-rule:evenodd;stroke:none;stroke-width:0.2;stroke-linecap:butt;stroke-linejoin:round;stroke-miterlimit:4;stroke-dasharray:none;stroke-opacity:1"
         inkscape:connector-curvature="0" />
      <path
         id="path6418"
         d="m 490.89648,241.44141 -9.625,9.58789 4.06446,0 a 0.35851083,0.35851085 0 0 1 0.35937,0.35937 l 0,2.87305 10.40235,0 0,-2.87305 a 0.35851083,0.35851085 0 0 1 0.35937,-0.35937 l 4.08399,0 -9.64454,-9.58789 z"
         style="fill:#ff782a;fill-opacity:1;fill-rule:evenodd;stroke:none;stroke-width:0.2;stroke-linecap:butt;stroke-linejoin:round;stroke-miterlimit:4;stroke-dasharray:none;stroke-opacity:1"
         inkscape:connector-curvature="0" />
    </g>
    <g
       id="g6444">
      <path
         id="path6428"
         d="m 478.83789,238.70703 c -0.94498,1e-5 -2.31689,0.12651 -3.4082,0.41797 -0.54566,0.14573 -1.02216,0.33574 -1.32617,0.54102 -0.30402,0.20527 -0.40625,0.37659 -0.40625,0.55664 l 0,13.21484 10.27734,0 0,-13.21484 c 0,-0.17994 -0.10259,-0.35143 -0.40625,-0.55664 -0.30366,-0.20522 -0.77907,-0.39525 -1.32422,-0.54102 -1.0903,-0.29154 -2.46133,-0.41798 -3.40625,-0.41797 z"
         style="fill:#109df0;fill-opacity:1;fill-rule:evenodd;stroke:none;stroke-width:0.2;stroke-linecap:butt;stroke-linejoin:round;stroke-miterlimit:4;stroke-dasharray:none;stroke-opacity:1"
         inkscape:connector-curvature="0" />
      <path
         id="path6430"
         d="m 473.69727,253.4375 0,3.75 a 0.42125918,0.42125921 0 0 1 -0.42188,0.42188 l -3.91211,0 9.47266,9.43554 9.49414,-9.43554 -3.9336,0 a 0.42125918,0.42125921 0 0 1 -0.42187,-0.42188 l 0,-3.75 -10.27734,0 z"
         style="fill:#109df0;fill-opacity:1;fill-rule:evenodd;stroke:none;stroke-width:0.2;stroke-linecap:butt;stroke-linejoin:round;stroke-miterlimit:4;stroke-dasharray:none;stroke-opacity:1"
         inkscape:connector-curvature="0" />
    </g>
  </g>
</svg>
